<svg width="429" height="9" viewBox="0 0 429 9" fill="none" xmlns="http://www.w3.org/2000/svg">
<path d="M2 6.71429L5.87375 4.00592C8.36697 2.26276 11.748 2.54154 13.922 4.66953L14.2596 5C16.5306 7.22285 20.1617 7.22285 22.4327 5V5C24.7036 2.77715 28.3348 2.77715 30.6058 5V5C32.8767 7.22285 36.5079 7.22285 38.7788 5V5C41.0498 2.77715 44.681 2.77715 46.9519 5V5C49.2229 7.22285 52.8541 7.22285 55.125 5V5C57.3959 2.77715 61.0271 2.77715 63.2981 5V5C65.569 7.22285 69.2002 7.22285 71.4712 5V5C73.7421 2.77715 77.3733 2.77715 79.6442 5V5C81.9152 7.22285 85.5464 7.22285 87.8173 5V5C90.0882 2.77715 93.7194 2.77715 95.9904 5V5C98.2613 7.22285 101.893 7.22285 104.163 5V5C106.434 2.77715 110.066 2.77715 112.337 5V5C114.607 7.22285 118.239 7.22285 120.51 5V5C122.781 2.77715 126.412 2.77715 128.683 5V5C130.954 7.22285 134.585 7.22285 136.856 5V5C139.127 2.77715 142.758 2.77715 145.029 5V5C147.3 7.22285 150.931 7.22285 153.202 5V5C155.473 2.77715 159.104 2.77715 161.375 5V5C163.646 7.22285 167.277 7.22285 169.548 5V5C171.819 2.77715 175.45 2.77715 177.721 5V5C179.992 7.22285 183.623 7.22285 185.894 5V5C188.165 2.77715 191.796 2.77715 194.067 5V5C196.338 7.22285 199.969 7.22285 202.24 5V5C204.511 2.77715 208.143 2.77715 210.413 5V5C212.684 7.22285 216.316 7.22285 218.587 5V5C220.857 2.77715 224.489 2.77715 226.76 5V5C229.031 7.22285 232.662 7.22285 234.933 5V5C237.204 2.77715 240.835 2.77715 243.106 5V5C245.377 7.22285 249.008 7.22285 251.279 5V5C253.55 2.77715 257.181 2.77715 259.452 5V5C261.723 7.22285 265.354 7.22285 267.625 5V5C269.896 2.77715 273.527 2.77715 275.798 5V5C278.069 7.22285 281.7 7.22285 283.971 5V5C286.242 2.77715 289.873 2.77715 292.144 5V5C294.415 7.22285 298.046 7.22285 300.317 5V5C302.588 2.77715 306.219 2.77715 308.49 5V5C310.761 7.22285 314.393 7.22285 316.663 5V5C318.934 2.77715 322.566 2.77715 324.837 5V5C327.107 7.22285 330.739 7.22285 333.01 5V5C335.281 2.77715 338.912 2.77715 341.183 5V5C343.454 7.22285 347.085 7.22285 349.356 5V5C351.627 2.77715 355.258 2.77715 357.529 5V5C359.8 7.22285 363.431 7.22285 365.702 5V5C367.973 2.77715 371.604 2.77715 373.875 5V5C376.146 7.22285 379.777 7.22285 382.048 5V5C384.319 2.77715 387.95 2.77715 390.221 5V5C392.492 7.22285 396.123 7.22285 398.394 5V5C400.665 2.77715 404.296 2.77715 406.567 5V5C408.838 7.22285 412.469 7.22285 414.74 5L415.078 4.66953C417.252 2.54154 420.633 2.26276 423.126 4.00592L427 6.71429" stroke="white" stroke-opacity="0.5" stroke-width="4" stroke-linecap="round" stroke-linejoin="round"/>
</svg>
