<?xml version="1.0" standalone="no"?>
<!DOCTYPE svg PUBLIC "-//W3C//DTD SVG 20010904//EN"
 "http://www.w3.org/TR/2001/REC-SVG-20010904/DTD/svg10.dtd">
<svg version="1.0" xmlns="http://www.w3.org/2000/svg"
 width="1064.000000pt" height="1064.000000pt" viewBox="0 0 1064.000000 1064.000000"
 preserveAspectRatio="xMidYMid meet">
<metadata>
Created by potrace 1.14, written by Peter Selinger 2001-2017
</metadata>
<g transform="translate(0.000000,1064.000000) scale(0.100000,-0.100000)"
fill="#000000" stroke="none">
<path d="M1954 6856 l0 -1664 921 0 c506 0 927 1 935 4 13 3 15 54 16 379 l1
375 -56 0 c-31 1 -272 2 -536 3 l-479 2 0 1283 0 1282 -401 0 -401 0 0 -1664z"/>
<path d="M7855 8504 c-103 -16 -147 -24 -155 -29 -3 -2 -17 -6 -31 -9 -33 -7
-97 -31 -105 -39 -4 -4 -16 -7 -26 -7 -10 0 -18 -5 -18 -11 0 -5 -4 -8 -9 -4
-5 3 -16 -2 -24 -10 -9 -8 -23 -15 -31 -15 -9 0 -16 -3 -16 -8 0 -4 -16 -16
-36 -27 -64 -34 -196 -173 -243 -255 -86 -148 -137 -335 -142 -515 -2 -86 8
-81 -150 -80 -85 0 -143 -4 -147 -10 -4 -5 -7 -174 -7 -374 0 -268 3 -365 12
-368 6 -2 74 -5 150 -6 l138 -2 0 -1192 0 -1192 -39 37 c-22 20 -45 42 -51 48
-57 59 -205 133 -330 165 -140 36 -409 32 -545 -6 -3 -1 -12 -4 -20 -7 -8 -3
-37 -14 -65 -23 -45 -16 -183 -83 -195 -95 -3 -3 -31 -25 -64 -49 -62 -46
-165 -146 -206 -200 -14 -18 -30 -38 -35 -44 -44 -50 -157 -266 -170 -326 -2
-9 -13 -46 -23 -82 -20 -66 -24 -91 -42 -224 -11 -86 -5 -352 9 -420 6 -27 13
-61 16 -75 18 -91 38 -157 64 -215 5 -11 19 -42 32 -70 12 -27 31 -62 41 -78
11 -15 16 -27 11 -27 -4 0 -3 -4 2 -8 6 -4 28 -34 50 -67 53 -81 204 -229 290
-287 59 -40 185 -105 220 -115 195 -55 198 -55 355 -57 85 0 173 2 195 7 22 4
49 9 60 11 24 3 126 36 140 45 6 3 15 6 22 7 29 5 161 93 215 144 32 31 60 54
62 51 1 -3 2 -50 1 -103 0 -81 2 -98 15 -99 107 -7 763 -2 768 6 4 6 8 1023 9
2260 0 1238 2 2257 2 2266 1 14 46 16 448 15 l448 -1 2 -380 c1 -209 4 -398 7
-420 11 -91 17 -131 22 -145 3 -8 8 -26 10 -40 21 -113 110 -282 188 -355 99
-94 241 -159 391 -180 11 -2 45 -7 75 -11 70 -10 393 -10 485 1 39 4 78 7 88
7 16 -1 17 23 17 358 l0 358 -97 -2 c-121 -2 -241 10 -285 28 -18 8 -45 25
-60 39 -49 45 -54 92 -52 427 1 168 2 308 3 312 0 3 106 6 234 6 127 0 238 1
245 1 9 1 12 84 12 379 l0 377 -237 -1 c-131 0 -243 1 -248 3 -6 2 -10 118 -9
326 0 177 -1 325 -3 329 -2 3 -24 -1 -50 -9 -27 -8 -55 -16 -63 -18 -8 -2 -69
-20 -135 -40 -66 -20 -124 -37 -130 -39 -5 -1 -14 -4 -20 -8 -5 -3 -26 -9 -45
-14 -43 -10 -42 -9 -60 -17 -8 -3 -49 -15 -90 -27 -41 -12 -102 -30 -135 -41
l-60 -19 0 -206 c0 -128 -3 -208 -10 -213 -5 -4 -208 -7 -450 -7 l-440 1 3 30
c7 68 32 131 67 168 58 62 138 89 270 92 l70 1 0 365 0 364 -140 1 c-77 0
-176 -5 -220 -12z m-1240 -4618 c17 -2 43 -8 58 -14 16 -7 34 -12 40 -12 22
-1 108 -56 149 -95 105 -102 156 -235 153 -405 -2 -98 -20 -170 -62 -250 -40
-76 -64 -105 -128 -154 -136 -104 -331 -128 -513 -62 -115 41 -223 158 -266
286 -44 133 -38 312 14 426 11 24 20 46 20 49 0 6 13 23 43 56 9 10 17 22 17
27 1 13 98 84 148 107 75 35 176 54 252 47 25 -2 59 -5 75 -6z"/>
<path d="M5319 7566 c-2 -2 -47 -7 -99 -10 -52 -3 -106 -8 -120 -11 -109 -21
-145 -31 -220 -57 -320 -113 -599 -371 -734 -678 -36 -81 -74 -207 -81 -265
-2 -16 -6 -48 -10 -70 -21 -120 -6 -365 30 -498 9 -32 18 -66 20 -75 2 -9 11
-35 21 -57 10 -22 18 -42 19 -45 1 -3 10 -23 19 -44 10 -21 22 -64 27 -95 6
-31 14 -78 18 -105 5 -27 8 -99 6 -160 -4 -212 -72 -374 -211 -508 -53 -51
-128 -108 -143 -108 -5 0 -11 -4 -13 -9 -6 -16 -195 -99 -298 -131 -58 -18
-112 -35 -120 -38 -8 -3 -25 -7 -38 -9 -12 -2 -62 -18 -110 -35 -254 -89 -478
-266 -640 -505 -23 -34 -42 -66 -42 -72 0 -5 -4 -11 -8 -13 -20 -8 -105 -237
-118 -318 -3 -19 -8 -38 -10 -41 -6 -11 -17 -163 -17 -244 0 -79 8 -169 17
-211 2 -12 7 -39 10 -59 11 -65 64 -212 107 -297 153 -295 453 -541 770 -629
181 -50 458 -61 629 -24 14 3 38 8 55 11 131 24 353 131 475 231 49 39 189
180 221 223 19 25 37 47 41 48 5 2 8 8 8 13 0 11 51 91 63 100 5 3 8 8 7 10
-1 2 12 33 27 69 54 120 69 172 92 310 17 100 21 333 7 400 -2 14 -7 42 -10
64 -4 21 -8 42 -11 46 -2 3 -6 20 -9 37 -3 16 -19 74 -36 129 -28 91 -49 175
-66 264 -13 73 -13 275 0 333 7 31 12 57 10 57 -9 0 67 163 96 206 123 181
403 341 680 389 112 19 291 100 418 187 68 48 216 185 268 249 121 149 216
356 249 544 16 91 19 121 18 240 -1 148 -5 190 -32 308 -37 161 -133 351 -244
483 -138 165 -351 320 -522 381 -16 6 -39 14 -50 19 -38 14 -63 20 -184 45
-30 6 -89 12 -132 14 -43 2 -82 6 -87 9 -5 3 -11 4 -13 2z m46 -771 c116 -9
209 -50 285 -127 38 -39 107 -130 103 -135 -1 -2 4 -17 11 -35 20 -47 33 -148
30 -224 -9 -222 -156 -404 -364 -452 -37 -8 -178 -8 -228 0 -135 23 -276 145
-329 286 -18 50 -37 146 -35 177 1 6 3 40 5 76 6 85 21 134 64 213 26 47 96
126 113 126 5 0 10 4 10 8 0 25 216 102 241 86 5 -3 9 0 9 6 0 6 4 9 9 6 5 -3
39 -8 76 -11z m-1546 -2935 c137 -27 268 -126 327 -250 19 -40 27 -64 41 -120
10 -42 8 -192 -4 -244 -28 -123 -123 -251 -230 -308 -142 -77 -371 -70 -498
15 -16 11 -54 44 -82 74 -85 87 -123 177 -129 312 -5 112 10 190 51 276 93
191 301 288 524 245z"/>
<path d="M1118 4625 c-1 -1 -27 -6 -57 -9 -153 -18 -342 -85 -476 -169 -27
-17 -52 -34 -55 -37 -3 -3 -22 -16 -43 -30 -59 -39 -227 -218 -279 -296 -86
-129 -158 -298 -174 -404 -3 -19 -8 -42 -11 -50 -12 -32 -15 -71 -17 -237 -3
-149 0 -187 21 -290 13 -65 29 -122 34 -127 5 -6 9 -18 9 -27 0 -38 128 -284
175 -336 5 -6 39 -44 75 -85 63 -72 200 -188 271 -229 114 -66 293 -136 399
-154 19 -3 49 -8 65 -11 17 -3 98 -7 180 -9 129 -3 191 1 290 19 49 9 161 40
170 46 6 4 27 13 48 20 68 22 219 106 292 162 81 63 129 110 193 188 20 25 40
47 43 50 7 6 79 119 79 124 0 6 -190 116 -201 116 -5 0 -9 5 -9 10 0 6 -5 10
-10 10 -6 0 -27 11 -48 23 -20 13 -57 35 -82 49 -67 37 -109 62 -168 97 -29
17 -57 31 -62 31 -4 0 -10 3 -12 8 -3 8 -66 42 -77 42 -5 0 -21 -19 -36 -42
-86 -130 -227 -193 -412 -184 -115 6 -185 32 -272 102 -129 104 -184 269 -158
474 23 175 164 331 341 377 57 14 189 14 255 -1 88 -20 213 -111 259 -188 9
-15 19 -28 23 -28 3 0 23 11 43 25 20 14 38 25 40 25 2 0 70 39 152 86 82 47
201 115 264 152 63 36 127 74 143 84 l28 20 -23 36 c-12 21 -31 49 -42 64 -12
14 -32 41 -46 59 -149 198 -477 392 -720 426 -19 2 -48 8 -65 12 -28 7 -329
13 -337 6z"/>
<path d="M9258 4625 c-2 -2 -23 -5 -48 -8 -215 -27 -433 -118 -595 -247 -46
-37 -131 -117 -160 -151 -65 -77 -95 -117 -95 -127 0 -6 -6 -15 -12 -19 -30
-19 -142 -256 -153 -323 0 -3 -6 -27 -13 -55 -39 -165 -46 -399 -17 -565 2
-14 6 -39 9 -57 2 -17 9 -40 15 -52 6 -11 10 -24 9 -28 -8 -31 132 -328 171
-363 3 -3 22 -25 42 -50 132 -164 282 -272 512 -368 36 -16 204 -63 214 -60 5
1 19 -2 33 -5 85 -21 420 -30 525 -14 122 18 107 15 180 32 56 13 206 67 248
91 23 12 60 32 81 44 77 42 204 150 269 229 l28 33 -60 44 c-34 24 -65 44 -70
44 -5 0 -11 4 -13 8 -1 5 -25 23 -53 42 -27 19 -54 38 -60 43 -11 9 -103 72
-195 134 -30 21 -57 40 -60 43 -3 3 -18 13 -33 23 -28 18 -28 18 -65 -13 -51
-42 -50 -42 -112 -71 -98 -47 -165 -62 -285 -62 -125 -1 -280 30 -322 65 -7 6
-13 7 -13 4 0 -4 -6 -2 -12 4 -7 6 -30 23 -50 38 -54 42 -128 140 -128 170 0
4 366 7 814 7 448 0 817 3 821 6 3 4 12 42 19 85 14 79 15 370 2 424 -3 14 -8
36 -11 50 -3 14 -7 36 -10 50 -3 14 -8 35 -11 47 -9 47 -66 189 -101 252 -59
109 -121 191 -218 288 -134 133 -286 227 -456 282 -84 28 -97 30 -224 50 -59
9 -328 14 -337 6z m295 -674 c82 -19 140 -53 205 -119 34 -35 60 -68 57 -72
-3 -5 -2 -10 2 -12 12 -5 43 -76 43 -98 0 -18 -16 -18 -450 -18 l-450 1 4 22
c7 38 55 124 93 166 71 79 146 117 262 134 19 3 36 6 37 8 7 7 155 -2 197 -12z"/>
</g>
</svg>
